<svg width="223" height="58" viewBox="0 0 223 58" fill="none" xmlns="http://www.w3.org/2000/svg">
<path d="M42.923 43.0245C45.2307 38.1634 46.6923 32.9887 47.3846 27.6572L47.4615 27.1084C43.4615 31.6559 40.6923 37.0658 39.1538 42.9461H42.923V43.0245Z" fill="white"/>
<path d="M13.4615 43.0248H18.0769C17 37.5365 15.0769 32.2834 12.4615 27.3439L12.2308 26.8735C11.9231 26.3246 12 25.619 12.4615 25.1486C12.9231 24.6781 13.6154 24.5213 14.1538 24.8349L17.4615 26.403C18.6154 26.9519 19.6923 27.5791 20.6154 28.3631C19.2308 22.8748 17.2308 17.5433 14.5385 12.6039L14.3077 12.1334C14 11.5846 14.0769 10.879 14.5385 10.4085C15 9.9381 15.6923 9.78129 16.2308 10.0949L20.1538 11.9766C22.9231 13.3095 25.3846 15.2696 27.4615 17.6217C28.3846 13.0743 31.3077 9.15406 35.5385 7.03714L38.2308 5.62586C38.7692 5.31224 39.4615 5.46905 39.9231 5.86107C40.3846 6.3315 40.4615 6.95873 40.2308 7.58597C38.7692 10.8005 37.8462 14.2503 37.4615 17.7785C39.6923 14.956 42.3077 12.3686 45.2308 10.1733C45.7692 9.78129 46.5385 9.78129 47 10.2517C47.5385 10.6437 47.6923 11.4278 47.3846 12.055C45.6154 16.0536 43.9231 22.4044 42.6923 28.6768C44.3077 26.403 46.0769 24.2861 48.1538 22.4044L48.6154 21.934C49.0769 21.542 49.6923 21.3851 50.3077 21.6988C50.8462 22.0124 51.1538 22.5612 51.0769 23.1884L50.4615 28.0495C49.8462 33.2242 48.4615 38.2421 46.3077 43.0248H54V10.0165C53.8462 4.99862 49.9231 1 45 1H8.84615C3.92308 1 0 4.99862 0 10.0165V48.9835C0 53.923 3.92308 58 8.84615 58H12.0769V44.5144C12 43.652 12.6923 43.0248 13.4615 43.0248Z" fill="white"/>
<path d="M32.9231 24.7561C33.3077 23.972 33.7692 23.188 34.1539 22.4039C34.1539 22.3255 34.1539 22.2471 34.1539 22.1687V21.7767C34.1539 17.8565 34.7692 13.8579 36 10.1729C32.2308 12.4466 30 16.4452 30 20.9143C30 21.0711 30 21.2279 29.9231 21.3063C30.8462 22.9528 31.6154 24.7561 32.0769 26.5594C32.3077 25.9321 32.6154 25.3049 32.9231 24.7561Z" fill="white"/>
<path d="M43.8462 46.0042H37.3077H15V49.6892H35.0769C35.8462 49.6892 36.5385 50.3948 36.5385 51.1789C36.5385 51.9629 35.8462 52.6686 35.0769 52.6686H14.9231V57.9217H45C49.8462 57.9217 53.8462 53.923 53.8462 48.9051V45.9258L43.8462 46.0042ZM41.6923 52.2765C41.3846 52.5902 41.0769 52.747 40.6923 52.747C40.3077 52.747 39.9231 52.5902 39.6923 52.2765C39.3846 51.9629 39.2308 51.6493 39.2308 51.2573C39.2308 50.8653 39.3846 50.4732 39.6923 50.238C40 49.9244 40.3077 49.7676 40.6923 49.7676C41.0769 49.7676 41.4616 49.9244 41.6923 50.238C42 50.5516 42.1539 50.8653 42.1539 51.2573C42.0769 51.5709 41.9231 51.9629 41.6923 52.2765Z" fill="white"/>
<path d="M36.1539 43.025C36.6154 40.908 37.3077 38.8695 38.0769 36.9094C38.6154 33.6164 40.2308 23.9727 42.6154 16.2891C35.6154 23.2671 31.5385 32.9108 31.4615 43.025H36.1539Z" fill="white"/>
<path d="M25.3078 43.0249C25.0001 37.3014 21.6924 32.1267 16.7693 29.4609C18.7693 33.7732 20.1539 38.3206 21.077 43.0249H25.3078V43.0249Z" fill="white"/>
<path d="M25.3078 33.6162C27.077 36.4387 28.077 39.6533 28.2308 43.0247H28.5385C28.5385 39.4965 29.077 35.9683 29.9231 32.5185C29.8462 24.9133 25.5385 17.9353 18.7693 14.7207C21.3847 20.2874 23.2308 26.1677 24.3077 32.2833C24.6924 32.6753 25.0001 33.1457 25.3078 33.6162Z" fill="white"/>
<path d="M84.016 43.388V51.542C84.016 54.926 82.288 56.618 78.832 56.618C77.908 56.618 77.032 56.498 76.204 56.258C75.376 56.03 74.692 55.694 74.152 55.25L75.16 53.558C75.58 53.906 76.108 54.182 76.744 54.386C77.392 54.602 78.046 54.71 78.706 54.71C79.762 54.71 80.536 54.47 81.028 53.99C81.52 53.51 81.766 52.778 81.766 51.794V51.29C81.382 51.71 80.914 52.028 80.362 52.244C79.81 52.46 79.204 52.568 78.544 52.568C77.632 52.568 76.804 52.376 76.06 51.992C75.328 51.596 74.746 51.044 74.314 50.336C73.894 49.628 73.684 48.818 73.684 47.906C73.684 46.994 73.894 46.19 74.314 45.494C74.746 44.786 75.328 44.24 76.06 43.856C76.804 43.472 77.632 43.28 78.544 43.28C79.24 43.28 79.87 43.394 80.434 43.622C81.01 43.85 81.49 44.198 81.874 44.666V43.388H84.016ZM78.886 50.66C79.738 50.66 80.434 50.408 80.974 49.904C81.526 49.388 81.802 48.722 81.802 47.906C81.802 47.102 81.526 46.448 80.974 45.944C80.434 45.44 79.738 45.188 78.886 45.188C78.022 45.188 77.314 45.44 76.762 45.944C76.222 46.448 75.952 47.102 75.952 47.906C75.952 48.722 76.222 49.388 76.762 49.904C77.314 50.408 78.022 50.66 78.886 50.66ZM90.646 43.28C92.062 43.28 93.142 43.622 93.886 44.306C94.642 44.978 95.02 45.998 95.02 47.366V53H92.896V51.83C92.62 52.25 92.224 52.574 91.708 52.802C91.204 53.018 90.592 53.126 89.872 53.126C89.152 53.126 88.522 53.006 87.982 52.766C87.442 52.514 87.022 52.172 86.722 51.74C86.434 51.296 86.29 50.798 86.29 50.246C86.29 49.382 86.608 48.692 87.244 48.176C87.892 47.648 88.906 47.384 90.286 47.384H92.77V47.24C92.77 46.568 92.566 46.052 92.158 45.692C91.762 45.332 91.168 45.152 90.376 45.152C89.836 45.152 89.302 45.236 88.774 45.404C88.258 45.572 87.82 45.806 87.46 46.106L86.578 44.468C87.082 44.084 87.688 43.79 88.396 43.586C89.104 43.382 89.854 43.28 90.646 43.28ZM90.34 51.488C90.904 51.488 91.402 51.362 91.834 51.11C92.278 50.846 92.59 50.474 92.77 49.994V48.878H90.448C89.152 48.878 88.504 49.304 88.504 50.156C88.504 50.564 88.666 50.888 88.99 51.128C89.314 51.368 89.764 51.488 90.34 51.488ZM100.05 44.792C100.698 43.784 101.838 43.28 103.47 43.28V45.422C103.278 45.386 103.104 45.368 102.948 45.368C102.072 45.368 101.388 45.626 100.896 46.142C100.404 46.646 100.158 47.378 100.158 48.338V53H97.9076V43.388H100.05V44.792ZM114.704 39.644V53H112.544V51.758C112.172 52.214 111.71 52.556 111.158 52.784C110.618 53.012 110.018 53.126 109.358 53.126C108.434 53.126 107.6 52.922 106.856 52.514C106.124 52.106 105.548 51.53 105.128 50.786C104.708 50.03 104.498 49.166 104.498 48.194C104.498 47.222 104.708 46.364 105.128 45.62C105.548 44.876 106.124 44.3 106.856 43.892C107.6 43.484 108.434 43.28 109.358 43.28C109.994 43.28 110.576 43.388 111.104 43.604C111.632 43.82 112.082 44.144 112.454 44.576V39.644H114.704ZM109.628 51.2C110.168 51.2 110.654 51.08 111.086 50.84C111.518 50.588 111.86 50.234 112.112 49.778C112.364 49.322 112.49 48.794 112.49 48.194C112.49 47.594 112.364 47.066 112.112 46.61C111.86 46.154 111.518 45.806 111.086 45.566C110.654 45.314 110.168 45.188 109.628 45.188C109.088 45.188 108.602 45.314 108.17 45.566C107.738 45.806 107.396 46.154 107.144 46.61C106.892 47.066 106.766 47.594 106.766 48.194C106.766 48.794 106.892 49.322 107.144 49.778C107.396 50.234 107.738 50.588 108.17 50.84C108.602 51.08 109.088 51.2 109.628 51.2ZM126.684 48.248C126.684 48.404 126.672 48.626 126.648 48.914H119.106C119.238 49.622 119.58 50.186 120.132 50.606C120.696 51.014 121.392 51.218 122.22 51.218C123.276 51.218 124.146 50.87 124.83 50.174L126.036 51.56C125.604 52.076 125.058 52.466 124.398 52.73C123.738 52.994 122.994 53.126 122.166 53.126C121.11 53.126 120.18 52.916 119.376 52.496C118.572 52.076 117.948 51.494 117.504 50.75C117.072 49.994 116.856 49.142 116.856 48.194C116.856 47.258 117.066 46.418 117.486 45.674C117.918 44.918 118.512 44.33 119.268 43.91C120.024 43.49 120.876 43.28 121.824 43.28C122.76 43.28 123.594 43.49 124.326 43.91C125.07 44.318 125.646 44.9 126.054 45.656C126.474 46.4 126.684 47.264 126.684 48.248ZM121.824 45.08C121.104 45.08 120.492 45.296 119.988 45.728C119.496 46.148 119.196 46.712 119.088 47.42H124.542C124.446 46.724 124.152 46.16 123.66 45.728C123.168 45.296 122.556 45.08 121.824 45.08ZM134.299 43.28C135.511 43.28 136.483 43.634 137.215 44.342C137.947 45.05 138.313 46.1 138.313 47.492V53H136.063V47.78C136.063 46.94 135.865 46.31 135.469 45.89C135.073 45.458 134.509 45.242 133.777 45.242C132.949 45.242 132.295 45.494 131.815 45.998C131.335 46.49 131.095 47.204 131.095 48.14V53H128.845V43.388H130.987V44.63C131.359 44.186 131.827 43.85 132.391 43.622C132.955 43.394 133.591 43.28 134.299 43.28ZM141.887 53.126C141.479 53.126 141.131 52.988 140.843 52.712C140.555 52.424 140.411 52.064 140.411 51.632C140.411 51.188 140.549 50.828 140.825 50.552C141.113 50.276 141.467 50.138 141.887 50.138C142.307 50.138 142.655 50.276 142.931 50.552C143.219 50.828 143.363 51.188 143.363 51.632C143.363 52.064 143.219 52.424 142.931 52.712C142.643 52.988 142.295 53.126 141.887 53.126Z" fill="white"/>
<path d="M92.192 8.6L82.496 31H77.376L67.712 8.6H73.312L80.128 24.6L87.04 8.6H92.192ZM94.0228 13.784H99.0148V31H94.0228V13.784ZM96.5188 11.384C95.6014 11.384 94.8548 11.1173 94.2788 10.584C93.7028 10.0507 93.4148 9.38933 93.4148 8.6C93.4148 7.81067 93.7028 7.14933 94.2788 6.616C94.8548 6.08267 95.6014 5.816 96.5188 5.816C97.4361 5.816 98.1828 6.072 98.7588 6.584C99.3348 7.096 99.6228 7.736 99.6228 8.504C99.6228 9.336 99.3348 10.0293 98.7588 10.584C98.1828 11.1173 97.4361 11.384 96.5188 11.384ZM120.512 22.456C120.512 22.52 120.48 22.968 120.416 23.8H107.392C107.626 24.8667 108.181 25.7093 109.056 26.328C109.93 26.9467 111.018 27.256 112.32 27.256C113.216 27.256 114.005 27.128 114.688 26.872C115.392 26.5947 116.042 26.168 116.64 25.592L119.296 28.472C117.674 30.328 115.306 31.256 112.192 31.256C110.25 31.256 108.533 30.8827 107.04 30.136C105.546 29.368 104.394 28.312 103.584 26.968C102.773 25.624 102.368 24.0987 102.368 22.392C102.368 20.7067 102.762 19.192 103.552 17.848C104.362 16.4827 105.461 15.4267 106.848 14.68C108.256 13.912 109.824 13.528 111.552 13.528C113.237 13.528 114.762 13.8907 116.128 14.616C117.493 15.3413 118.56 16.3867 119.328 17.752C120.117 19.096 120.512 20.664 120.512 22.456ZM111.584 17.304C110.453 17.304 109.504 17.624 108.736 18.264C107.968 18.904 107.498 19.7787 107.328 20.888H115.808C115.637 19.8 115.168 18.936 114.4 18.296C113.632 17.6347 112.693 17.304 111.584 17.304ZM134.939 30.168C134.449 30.5307 133.841 30.808 133.115 31C132.411 31.1707 131.665 31.256 130.875 31.256C128.827 31.256 127.238 30.7333 126.107 29.688C124.998 28.6427 124.443 27.1067 124.443 25.08V18.008H121.787V14.168H124.443V9.976H129.435V14.168H133.723V18.008H129.435V25.016C129.435 25.7413 129.617 26.3067 129.979 26.712C130.363 27.096 130.897 27.288 131.579 27.288C132.369 27.288 133.041 27.0747 133.595 26.648L134.939 30.168ZM147.918 13.528C149.518 13.528 150.968 13.9013 152.27 14.648C153.592 15.3733 154.627 16.408 155.374 17.752C156.12 19.0747 156.494 20.6213 156.494 22.392C156.494 24.1627 156.12 25.72 155.374 27.064C154.627 28.3867 153.592 29.4213 152.27 30.168C150.968 30.8933 149.518 31.256 147.918 31.256C145.72 31.256 143.992 30.5627 142.734 29.176V37.208H137.742V13.784H142.51V15.768C143.747 14.2747 145.55 13.528 147.918 13.528ZM147.054 27.16C148.334 27.16 149.379 26.7333 150.19 25.88C151.022 25.0053 151.438 23.8427 151.438 22.392C151.438 20.9413 151.022 19.7893 150.19 18.936C149.379 18.0613 148.334 17.624 147.054 17.624C145.774 17.624 144.718 18.0613 143.885 18.936C143.075 19.7893 142.67 20.9413 142.67 22.392C142.67 23.8427 143.075 25.0053 143.885 25.88C144.718 26.7333 145.774 27.16 147.054 27.16ZM159.835 7.256H164.827V31H159.835V7.256ZM176.404 13.528C179.071 13.528 181.119 14.168 182.548 15.448C183.978 16.7067 184.692 18.616 184.692 21.176V31H180.02V28.856C179.082 30.456 177.332 31.256 174.772 31.256C173.45 31.256 172.298 31.032 171.316 30.584C170.356 30.136 169.62 29.5173 169.108 28.728C168.596 27.9387 168.34 27.0427 168.34 26.04C168.34 24.44 168.938 23.1813 170.132 22.264C171.348 21.3467 173.215 20.888 175.732 20.888H179.7C179.7 19.8 179.37 18.968 178.708 18.392C178.047 17.7947 177.055 17.496 175.732 17.496C174.815 17.496 173.908 17.6453 173.012 17.944C172.138 18.2213 171.391 18.6053 170.772 19.096L168.98 15.608C169.919 14.9467 171.039 14.4347 172.34 14.072C173.663 13.7093 175.018 13.528 176.404 13.528ZM176.02 27.896C176.874 27.896 177.631 27.704 178.292 27.32C178.954 26.9147 179.423 26.328 179.7 25.56V23.8H176.276C174.228 23.8 173.204 24.472 173.204 25.816C173.204 26.456 173.45 26.968 173.94 27.352C174.452 27.7147 175.146 27.896 176.02 27.896ZM199.674 13.528C201.808 13.528 203.525 14.168 204.826 15.448C206.149 16.728 206.81 18.6267 206.81 21.144V31H201.818V21.912C201.818 20.5467 201.52 19.5333 200.922 18.872C200.325 18.1893 199.461 17.848 198.33 17.848C197.072 17.848 196.069 18.2427 195.322 19.032C194.576 19.8 194.202 20.952 194.202 22.488V31H189.21V13.784H193.978V15.8C194.64 15.0747 195.461 14.52 196.442 14.136C197.424 13.7307 198.501 13.528 199.674 13.528ZM222.439 30.168C221.949 30.5307 221.341 30.808 220.615 31C219.911 31.1707 219.165 31.256 218.375 31.256C216.327 31.256 214.738 30.7333 213.607 29.688C212.498 28.6427 211.943 27.1067 211.943 25.08V18.008H209.287V14.168H211.943V9.976H216.935V14.168H221.223V18.008H216.935V25.016C216.935 25.7413 217.117 26.3067 217.479 26.712C217.863 27.096 218.397 27.288 219.079 27.288C219.869 27.288 220.541 27.0747 221.095 26.648L222.439 30.168Z" fill="white"/>
</svg>
