<svg width="169" height="44" viewBox="0 0 169 44" fill="none" xmlns="http://www.w3.org/2000/svg">
<path d="M33.1336 32.4404C34.915 28.688 36.0432 24.6935 36.5776 20.578L36.637 20.1543C33.5492 23.6646 31.4116 27.8407 30.224 32.3799H33.1336V32.4404Z" fill="#8EB63E"/>
<path d="M10.3914 32.4402H13.9541C13.1228 28.2036 11.6383 24.1486 9.61943 20.3356L9.4413 19.9725C9.20378 19.5488 9.26316 19.0041 9.61943 18.641C9.97571 18.2779 10.5101 18.1568 10.9258 18.3989L13.4791 19.6094C14.3698 20.033 15.2011 20.5172 15.9136 21.1224C14.8448 16.8858 13.3009 12.7703 11.2227 8.95736L11.0445 8.59422C10.807 8.17056 10.8664 7.62586 11.2227 7.26272C11.5789 6.89959 12.1134 6.77854 12.529 7.02063L15.5574 8.47318C17.695 9.50206 19.5951 11.0151 21.1984 12.8308C21.9109 9.3205 24.1673 6.29436 27.4332 4.66025L29.5115 3.57084C29.9271 3.32875 30.4615 3.44979 30.8178 3.75241C31.1741 4.11554 31.2335 4.59972 31.0553 5.08391C29.9271 7.56534 29.2146 10.2283 28.9177 12.9519C30.6397 10.773 32.6586 8.77579 34.915 7.08116C35.3306 6.77854 35.9244 6.77854 36.2807 7.14168C36.6964 7.44429 36.8151 8.04952 36.5776 8.5337C35.2119 11.6204 33.9055 16.5227 32.9555 21.3645C34.2024 19.6094 35.5682 17.9752 37.1714 16.5227L37.5277 16.1596C37.8839 15.8569 38.359 15.7359 38.834 15.978C39.2497 16.2201 39.4872 16.6437 39.4278 17.1279L38.9528 20.8803C38.4777 24.8748 37.4089 28.7483 35.7463 32.4402H41.6842V6.96011C41.5655 3.08666 38.5371 0 34.7368 0H6.82861C3.02834 0 0 3.08666 0 6.96011V37.0399C0 40.8528 3.02834 44 6.82861 44H9.32254V33.5901C9.26316 32.9243 9.79757 32.4402 10.3914 32.4402Z" fill="#8EB63E"/>
<path d="M25.4143 18.3383C25.7112 17.733 26.0675 17.1278 26.3644 16.5226C26.3644 16.4621 26.3644 16.4016 26.3644 16.341V16.0384C26.3644 13.0123 26.8394 9.92562 27.7895 7.08105C24.8799 8.83621 23.1579 11.9229 23.1579 15.3727C23.1579 15.4937 23.1579 15.6148 23.0985 15.6753C23.8111 16.9463 24.4049 18.3383 24.7611 19.7303C24.9393 19.2461 25.1768 18.7619 25.4143 18.3383Z" fill="#8EB63E"/>
<path d="M33.8461 34.7402H28.7989H11.5789V37.5848H27.0769C27.6707 37.5848 28.2051 38.1295 28.2051 38.7347C28.2051 39.3399 27.6707 39.8846 27.0769 39.8846H11.5195V43.9397H34.7368C38.4777 43.9397 41.5654 40.853 41.5654 36.9795V34.6797L33.8461 34.7402ZM32.1835 39.582C31.946 39.8241 31.7085 39.9452 31.4116 39.9452C31.1147 39.9452 30.8178 39.8241 30.6396 39.582C30.4021 39.3399 30.2834 39.0978 30.2834 38.7952C30.2834 38.4926 30.4021 38.19 30.6396 38.0084C30.8772 37.7663 31.1147 37.6453 31.4116 37.6453C31.7085 37.6453 32.0054 37.7663 32.1835 38.0084C32.421 38.2505 32.5398 38.4926 32.5398 38.7952C32.4804 39.0373 32.3616 39.3399 32.1835 39.582Z" fill="#8EB63E"/>
<path d="M27.9083 32.44C28.2645 30.8059 28.799 29.2323 29.3927 27.7192C29.8084 25.1773 31.0554 17.733 32.8961 11.8018C27.4926 17.1883 24.3455 24.6326 24.2861 32.44H27.9083Z" fill="#8EB63E"/>
<path d="M19.5358 32.4402C19.2983 28.022 16.745 24.0275 12.9447 21.9697C14.4886 25.2985 15.5574 28.8088 16.2699 32.4402H19.5358Z" fill="#8EB63E"/>
<path d="M19.5358 25.1773C20.9015 27.3561 21.6734 29.8375 21.7922 32.44H22.0297C22.0297 29.7165 22.4453 26.993 23.0985 24.33C23.0391 18.4593 19.7139 13.0727 14.4885 10.5913C16.5074 14.8884 17.9325 19.4276 18.7638 24.1484C19.0607 24.451 19.2982 24.8141 19.5358 25.1773Z" fill="#8EB63E"/>
<path d="M31.3522 37.5845C31.0553 37.5845 30.7584 37.7055 30.5803 37.9476C30.3428 38.1897 30.224 38.4318 30.224 38.7344C30.224 39.037 30.3428 39.3396 30.5803 39.5212C30.8178 39.7633 31.0553 39.8843 31.3522 39.8843C31.6491 39.8843 31.946 39.7633 32.1241 39.5212C32.3616 39.2791 32.4804 39.037 32.4804 38.7344C32.4804 38.4318 32.3616 38.1292 32.1241 37.9476C31.946 37.7055 31.6491 37.5845 31.3522 37.5845Z" fill="white"/>
<path d="M65.568 32.524V38.866C65.568 41.498 64.224 42.814 61.536 42.814C60.8173 42.814 60.136 42.7207 59.492 42.534C58.848 42.3567 58.316 42.0953 57.896 41.75L58.68 40.434C59.0067 40.7047 59.4173 40.9193 59.912 41.078C60.416 41.246 60.9247 41.33 61.438 41.33C62.2593 41.33 62.8613 41.1433 63.244 40.77C63.6267 40.3967 63.818 39.8273 63.818 39.062V38.67C63.5193 38.9967 63.1553 39.244 62.726 39.412C62.2967 39.58 61.8253 39.664 61.312 39.664C60.6027 39.664 59.9587 39.5147 59.38 39.216C58.8107 38.908 58.358 38.4787 58.022 37.928C57.6953 37.3773 57.532 36.7473 57.532 36.038C57.532 35.3287 57.6953 34.7033 58.022 34.162C58.358 33.6113 58.8107 33.1867 59.38 32.888C59.9587 32.5893 60.6027 32.44 61.312 32.44C61.8533 32.44 62.3433 32.5287 62.782 32.706C63.23 32.8833 63.6033 33.154 63.902 33.518V32.524H65.568ZM61.578 38.18C62.2407 38.18 62.782 37.984 63.202 37.592C63.6313 37.1907 63.846 36.6727 63.846 36.038C63.846 35.4127 63.6313 34.904 63.202 34.512C62.782 34.12 62.2407 33.924 61.578 33.924C60.906 33.924 60.3553 34.12 59.926 34.512C59.506 34.904 59.296 35.4127 59.296 36.038C59.296 36.6727 59.506 37.1907 59.926 37.592C60.3553 37.984 60.906 38.18 61.578 38.18ZM70.7247 32.44C71.826 32.44 72.666 32.706 73.2447 33.238C73.8327 33.7607 74.1267 34.554 74.1267 35.618V40H72.4747V39.09C72.26 39.4167 71.952 39.6687 71.5507 39.846C71.1587 40.014 70.6827 40.098 70.1227 40.098C69.5627 40.098 69.0727 40.0047 68.6527 39.818C68.2327 39.622 67.906 39.356 67.6727 39.02C67.4487 38.6747 67.3367 38.2873 67.3367 37.858C67.3367 37.186 67.584 36.6493 68.0787 36.248C68.5827 35.8373 69.3714 35.632 70.4447 35.632H72.3767V35.52C72.3767 34.9973 72.218 34.596 71.9007 34.316C71.5927 34.036 71.1307 33.896 70.5147 33.896C70.0947 33.896 69.6794 33.9613 69.2687 34.092C68.8674 34.2227 68.5267 34.4047 68.2467 34.638L67.5607 33.364C67.9527 33.0653 68.424 32.8367 68.9747 32.678C69.5254 32.5193 70.1087 32.44 70.7247 32.44ZM70.4867 38.824C70.9254 38.824 71.3127 38.726 71.6487 38.53C71.994 38.3247 72.2367 38.0353 72.3767 37.662V36.794H70.5707C69.5627 36.794 69.0587 37.1253 69.0587 37.788C69.0587 38.1053 69.1847 38.3573 69.4367 38.544C69.6887 38.7307 70.0387 38.824 70.4867 38.824ZM78.0386 33.616C78.5426 32.832 79.4293 32.44 80.6986 32.44V34.106C80.5493 34.078 80.4139 34.064 80.2926 34.064C79.6113 34.064 79.0793 34.2647 78.6966 34.666C78.3139 35.058 78.1226 35.6273 78.1226 36.374V40H76.3726V32.524H78.0386V33.616ZM89.4368 29.612V40H87.7568V39.034C87.4675 39.3887 87.1081 39.6547 86.6788 39.832C86.2588 40.0093 85.7921 40.098 85.2788 40.098C84.5601 40.098 83.9115 39.9393 83.3328 39.622C82.7635 39.3047 82.3155 38.8567 81.9888 38.278C81.6621 37.69 81.4988 37.018 81.4988 36.262C81.4988 35.506 81.6621 34.8387 81.9888 34.26C82.3155 33.6813 82.7635 33.2333 83.3328 32.916C83.9115 32.5987 84.5601 32.44 85.2788 32.44C85.7735 32.44 86.2261 32.524 86.6368 32.692C87.0475 32.86 87.3975 33.112 87.6868 33.448V29.612H89.4368ZM85.4888 38.6C85.9088 38.6 86.2868 38.5067 86.6228 38.32C86.9588 38.124 87.2248 37.8487 87.4208 37.494C87.6168 37.1393 87.7148 36.7287 87.7148 36.262C87.7148 35.7953 87.6168 35.3847 87.4208 35.03C87.2248 34.6753 86.9588 34.4047 86.6228 34.218C86.2868 34.022 85.9088 33.924 85.4888 33.924C85.0688 33.924 84.6908 34.022 84.3548 34.218C84.0188 34.4047 83.7528 34.6753 83.5568 35.03C83.3608 35.3847 83.2628 35.7953 83.2628 36.262C83.2628 36.7287 83.3608 37.1393 83.5568 37.494C83.7528 37.8487 84.0188 38.124 84.3548 38.32C84.6908 38.5067 85.0688 38.6 85.4888 38.6ZM98.7541 36.304C98.7541 36.4253 98.7448 36.598 98.7261 36.822H92.8601C92.9628 37.3727 93.2288 37.8113 93.6581 38.138C94.0968 38.4553 94.6381 38.614 95.2821 38.614C96.1035 38.614 96.7801 38.3433 97.3121 37.802L98.2501 38.88C97.9141 39.2813 97.4895 39.5847 96.9761 39.79C96.4628 39.9953 95.8841 40.098 95.2401 40.098C94.4188 40.098 93.6955 39.9347 93.0701 39.608C92.4448 39.2813 91.9595 38.8287 91.6141 38.25C91.2781 37.662 91.1101 36.9993 91.1101 36.262C91.1101 35.534 91.2735 34.8807 91.6001 34.302C91.9361 33.714 92.3981 33.2567 92.9861 32.93C93.5741 32.6033 94.2368 32.44 94.9741 32.44C95.7021 32.44 96.3508 32.6033 96.9201 32.93C97.4988 33.2473 97.9468 33.7 98.2641 34.288C98.5908 34.8667 98.7541 35.5387 98.7541 36.304ZM94.9741 33.84C94.4141 33.84 93.9381 34.008 93.5461 34.344C93.1635 34.6707 92.9301 35.1093 92.8461 35.66H97.0881C97.0135 35.1187 96.7848 34.68 96.4021 34.344C96.0195 34.008 95.5435 33.84 94.9741 33.84ZM104.677 32.44C105.62 32.44 106.376 32.7153 106.945 33.266C107.514 33.8167 107.799 34.6333 107.799 35.716V40H106.049V35.94C106.049 35.2867 105.895 34.7967 105.587 34.47C105.279 34.134 104.84 33.966 104.271 33.966C103.627 33.966 103.118 34.162 102.745 34.554C102.372 34.9367 102.185 35.492 102.185 36.22V40H100.435V32.524H102.101V33.49C102.39 33.1447 102.754 32.8833 103.193 32.706C103.632 32.5287 104.126 32.44 104.677 32.44ZM110.579 40.098C110.262 40.098 109.991 39.9907 109.767 39.776C109.543 39.552 109.431 39.272 109.431 38.936C109.431 38.5907 109.538 38.3107 109.753 38.096C109.977 37.8813 110.252 37.774 110.579 37.774C110.906 37.774 111.176 37.8813 111.391 38.096C111.615 38.3107 111.727 38.5907 111.727 38.936C111.727 39.272 111.615 39.552 111.391 39.776C111.167 39.9907 110.896 40.098 110.579 40.098Z" fill="#9B9B9B"/>
<path d="M70.144 6.2L62.872 23H59.032L51.784 6.2H55.984L61.096 18.2L66.28 6.2H70.144ZM71.5171 10.088H75.2611V23H71.5171V10.088ZM73.3891 8.288C72.7011 8.288 72.1411 8.088 71.7091 7.688C71.2771 7.288 71.0611 6.792 71.0611 6.2C71.0611 5.608 71.2771 5.112 71.7091 4.712C72.1411 4.312 72.7011 4.112 73.3891 4.112C74.0771 4.112 74.6371 4.304 75.0691 4.688C75.5011 5.072 75.7171 5.552 75.7171 6.128C75.7171 6.752 75.5011 7.272 75.0691 7.688C74.6371 8.088 74.0771 8.288 73.3891 8.288ZM91.3838 16.592C91.3838 16.64 91.3598 16.976 91.3118 17.6H81.5438C81.7198 18.4 82.1358 19.032 82.7918 19.496C83.4478 19.96 84.2638 20.192 85.2398 20.192C85.9118 20.192 86.5038 20.096 87.0158 19.904C87.5438 19.696 88.0318 19.376 88.4798 18.944L90.4718 21.104C89.2558 22.496 87.4798 23.192 85.1438 23.192C83.6878 23.192 82.3998 22.912 81.2798 22.352C80.1598 21.776 79.2958 20.984 78.6878 19.976C78.0798 18.968 77.7758 17.824 77.7758 16.544C77.7758 15.28 78.0718 14.144 78.6638 13.136C79.2718 12.112 80.0958 11.32 81.1358 10.76C82.1918 10.184 83.3678 9.896 84.6638 9.896C85.9278 9.896 87.0718 10.168 88.0958 10.712C89.1198 11.256 89.9198 12.04 90.4958 13.064C91.0878 14.072 91.3838 15.248 91.3838 16.592ZM84.6878 12.728C83.8398 12.728 83.1278 12.968 82.5518 13.448C81.9758 13.928 81.6238 14.584 81.4958 15.416H87.8558C87.7278 14.6 87.3758 13.952 86.7998 13.472C86.2238 12.976 85.5198 12.728 84.6878 12.728ZM102.204 22.376C101.836 22.648 101.38 22.856 100.836 23C100.308 23.128 99.7484 23.192 99.1564 23.192C97.6204 23.192 96.4284 22.8 95.5804 22.016C94.7484 21.232 94.3324 20.08 94.3324 18.56V13.256H92.3404V10.376H94.3324V7.232H98.0764V10.376H101.292V13.256H98.0764V18.512C98.0764 19.056 98.2124 19.48 98.4844 19.784C98.7724 20.072 99.1724 20.216 99.6844 20.216C100.276 20.216 100.78 20.056 101.196 19.736L102.204 22.376ZM111.938 9.896C113.138 9.896 114.226 10.176 115.202 10.736C116.194 11.28 116.97 12.056 117.53 13.064C118.09 14.056 118.37 15.216 118.37 16.544C118.37 17.872 118.09 19.04 117.53 20.048C116.97 21.04 116.194 21.816 115.202 22.376C114.226 22.92 113.138 23.192 111.938 23.192C110.29 23.192 108.994 22.672 108.05 21.632V27.656H104.306V10.088H107.882V11.576C108.81 10.456 110.162 9.896 111.938 9.896ZM111.29 20.12C112.25 20.12 113.034 19.8 113.642 19.16C114.266 18.504 114.578 17.632 114.578 16.544C114.578 15.456 114.266 14.592 113.642 13.952C113.034 13.296 112.25 12.968 111.29 12.968C110.33 12.968 109.538 13.296 108.914 13.952C108.306 14.592 108.002 15.456 108.002 16.544C108.002 17.632 108.306 18.504 108.914 19.16C109.538 19.8 110.33 20.12 111.29 20.12ZM120.876 5.192H124.62V23H120.876V5.192ZM133.303 9.896C135.303 9.896 136.839 10.376 137.911 11.336C138.983 12.28 139.519 13.712 139.519 15.632V23H136.015V21.392C135.311 22.592 133.999 23.192 132.079 23.192C131.087 23.192 130.223 23.024 129.487 22.688C128.767 22.352 128.215 21.888 127.831 21.296C127.447 20.704 127.255 20.032 127.255 19.28C127.255 18.08 127.703 17.136 128.599 16.448C129.511 15.76 130.911 15.416 132.799 15.416H135.775C135.775 14.6 135.527 13.976 135.031 13.544C134.535 13.096 133.791 12.872 132.799 12.872C132.111 12.872 131.431 12.984 130.759 13.208C130.103 13.416 129.543 13.704 129.079 14.072L127.735 11.456C128.439 10.96 129.279 10.576 130.255 10.304C131.247 10.032 132.263 9.896 133.303 9.896ZM133.015 20.672C133.655 20.672 134.223 20.528 134.719 20.24C135.215 19.936 135.567 19.496 135.775 18.92V17.6H133.207C131.671 17.6 130.903 18.104 130.903 19.112C130.903 19.592 131.087 19.976 131.455 20.264C131.839 20.536 132.359 20.672 133.015 20.672ZM150.756 9.896C152.356 9.896 153.644 10.376 154.62 11.336C155.612 12.296 156.108 13.72 156.108 15.608V23H152.364V16.184C152.364 15.16 152.14 14.4 151.692 13.904C151.244 13.392 150.596 13.136 149.748 13.136C148.804 13.136 148.052 13.432 147.492 14.024C146.932 14.6 146.652 15.464 146.652 16.616V23H142.908V10.088H146.484V11.6C146.98 11.056 147.596 10.64 148.332 10.352C149.068 10.048 149.876 9.896 150.756 9.896ZM167.829 22.376C167.461 22.648 167.005 22.856 166.461 23C165.933 23.128 165.373 23.192 164.781 23.192C163.245 23.192 162.053 22.8 161.205 22.016C160.373 21.232 159.957 20.08 159.957 18.56V13.256H157.965V10.376H159.957V7.232H163.701V10.376H166.917V13.256H163.701V18.512C163.701 19.056 163.837 19.48 164.109 19.784C164.397 20.072 164.797 20.216 165.309 20.216C165.901 20.216 166.405 20.056 166.821 19.736L167.829 22.376Z" fill="#4B4B4B"/>
</svg>
